<svg width="290" height="272" viewBox="0 0 290 272" fill="none" xmlns="http://www.w3.org/2000/svg">
<g filter="url(#filter0_d_1_18)">
<path d="M180.667 126.667L191.905 107L180.667 87.3333H158.191L146.952 107L158.191 126.667H180.667Z" fill="url(#paint0_linear_1_18)"/>
<path d="M203.143 87.3333L214.381 67.6667L203.143 48H180.667L169.429 67.6667L180.667 87.3333H203.143Z" fill="url(#paint1_linear_1_18)"/>
<path d="M225.619 126.667L236.857 107L225.619 87.3333H203.143L191.905 107L203.143 126.667H225.619Z" fill="url(#paint2_linear_1_18)"/>
<path d="M203.143 166L214.381 146.333L203.143 126.667H180.667L169.429 146.333L180.667 166H203.143Z" fill="url(#paint3_linear_1_18)"/>
<path d="M158.191 166L169.429 146.333L158.191 126.667H135.714L124.476 146.333L135.714 166H158.191Z" fill="url(#paint4_linear_1_18)"/>
<path d="M135.714 126.667L146.952 107L135.714 87.3333H113.238L102 107L113.238 126.667H135.714Z" fill="url(#paint5_linear_1_18)"/>
<path d="M158.191 87.3333L169.429 67.6667L158.191 48H135.714L124.476 67.6667L135.714 87.3333H158.191Z" fill="url(#paint6_linear_1_18)"/>
</g>
<defs>
<filter id="filter0_d_1_18" x="0" y="-50" width="338.857" height="322" filterUnits="userSpaceOnUse" color-interpolation-filters="sRGB">
<feFlood flood-opacity="0" result="BackgroundImageFix"/>
<feColorMatrix in="SourceAlpha" type="matrix" values="0 0 0 0 0 0 0 0 0 0 0 0 0 0 0 0 0 0 127 0" result="hardAlpha"/>
<feOffset dy="4"/>
<feGaussianBlur stdDeviation="51"/>
<feComposite in2="hardAlpha" operator="out"/>
<feColorMatrix type="matrix" values="0 0 0 0 1 0 0 0 0 1 0 0 0 0 1 0 0 0 0.25 0"/>
<feBlend mode="normal" in2="BackgroundImageFix" result="effect1_dropShadow_1_18"/>
<feBlend mode="normal" in="SourceGraphic" in2="effect1_dropShadow_1_18" result="shape"/>
</filter>
<linearGradient id="paint0_linear_1_18" x1="169.429" y1="48" x2="169.429" y2="166" gradientUnits="userSpaceOnUse">
<stop stop-color="#FF0000"/>
<stop offset="1" stop-color="#FF2E2E"/>
</linearGradient>
<linearGradient id="paint1_linear_1_18" x1="169.429" y1="48" x2="169.429" y2="166" gradientUnits="userSpaceOnUse">
<stop stop-color="#FF0000"/>
<stop offset="1" stop-color="#FF2E2E"/>
</linearGradient>
<linearGradient id="paint2_linear_1_18" x1="169.429" y1="48" x2="169.429" y2="166" gradientUnits="userSpaceOnUse">
<stop stop-color="#FF0000"/>
<stop offset="1" stop-color="#FF2E2E"/>
</linearGradient>
<linearGradient id="paint3_linear_1_18" x1="169.429" y1="48" x2="169.429" y2="166" gradientUnits="userSpaceOnUse">
<stop stop-color="#FF0000"/>
<stop offset="1" stop-color="#FF2E2E"/>
</linearGradient>
<linearGradient id="paint4_linear_1_18" x1="169.429" y1="48" x2="169.429" y2="166" gradientUnits="userSpaceOnUse">
<stop stop-color="#FF0000"/>
<stop offset="1" stop-color="#FF2E2E"/>
</linearGradient>
<linearGradient id="paint5_linear_1_18" x1="169.429" y1="48" x2="169.429" y2="166" gradientUnits="userSpaceOnUse">
<stop stop-color="#FF0000"/>
<stop offset="1" stop-color="#FF2E2E"/>
</linearGradient>
<linearGradient id="paint6_linear_1_18" x1="169.429" y1="48" x2="169.429" y2="166" gradientUnits="userSpaceOnUse">
<stop stop-color="#FF0000"/>
<stop offset="1" stop-color="#FF2E2E"/>
</linearGradient>
</defs>
</svg>
